<svg width="46" height="46" viewBox="0 0 46 46" fill="none" xmlns="http://www.w3.org/2000/svg">
<circle cx="23" cy="23" r="23" fill="#D9D9D9"/>
<path d="M24.1667 21.6667V11.25C24.1667 10.9185 24.035 10.6005 23.8005 10.3661C23.5661 10.1317 23.2482 10 22.9167 10C22.5851 10 22.2672 10.1317 22.0328 10.3661C21.7984 10.6005 21.6667 10.9185 21.6667 11.25V21.6667H11.25C10.9185 21.6667 10.6005 21.7984 10.3661 22.0328C10.1317 22.2672 10 22.5851 10 22.9167C10 23.2482 10.1317 23.5661 10.3661 23.8005C10.6005 24.035 10.9185 24.1667 11.25 24.1667H21.6667V34.5833C21.671 34.9135 21.8041 35.229 22.0376 35.4624C22.271 35.6959 22.5865 35.829 22.9167 35.8333C23.2482 35.8333 23.5661 35.7016 23.8005 35.4672C24.035 35.2328 24.1667 34.9149 24.1667 34.5833V24.1667H34.5833C34.9149 24.1667 35.2328 24.035 35.4672 23.8005C35.7016 23.5661 35.8333 23.2482 35.8333 22.9167C35.829 22.5865 35.6959 22.271 35.4624 22.0376C35.229 21.8041 34.9135 21.671 34.5833 21.6667H24.1667Z" fill="#545454"/>
</svg>
