<svg width="34" height="36" viewBox="0 0 34 36" fill="none" xmlns="http://www.w3.org/2000/svg">
<path d="M32 24.8163V16.4963C32 9.34634 32 5.77467 29.8033 3.55301C27.6067 1.33301 24.07 1.33301 17 1.33301C9.92833 1.33301 6.39333 1.33301 4.19667 3.55301C2 5.77467 2 9.34967 2 16.4963V24.818C2 29.978 2 32.5597 3.22333 33.6863C3.80667 34.2247 4.54333 34.563 5.32833 34.653C6.97333 34.8413 8.895 33.1413 12.7367 29.743C14.4367 28.2413 15.285 27.4897 16.2667 27.293C16.75 27.193 17.25 27.193 17.7333 27.293C18.7167 27.4897 19.565 28.2413 21.2633 29.743C25.105 33.1413 27.0267 34.8413 28.6717 34.6513C29.455 34.563 30.1933 34.2247 30.7767 33.6863C32 32.5597 32 29.978 32 24.8163Z" stroke="#545454" stroke-width="2.5"/>
<path opacity="0.5" d="M22 7.99951H12" stroke="#545454" stroke-width="2.5" stroke-linecap="round"/>
</svg>
