<svg width="75" height="58" viewBox="0 0 75 58" fill="none" xmlns="http://www.w3.org/2000/svg">
<path d="M36.8063 57.9998C35.5113 57.9998 34.4938 57.0145 34.4938 55.7604V28.8878C34.4938 27.6338 35.5113 26.6484 36.8063 26.6484C38.1013 26.6484 39.1188 27.6338 39.1188 28.8878V55.7604C39.1188 57.0145 38.1013 57.9998 36.8063 57.9998Z" fill="#545454"/>
<path d="M48.6462 37.6668C48.3429 37.6703 48.0422 37.6124 47.7634 37.4967C47.4847 37.381 47.234 37.2101 47.0275 36.9949L37.0837 27.3656L27.14 36.9949C26.215 37.8907 24.7812 37.8907 23.8562 36.9949C22.9312 36.0992 22.9312 34.7108 23.8562 33.815L35.4187 22.6181C36.3437 21.7224 37.7775 21.7224 38.7025 22.6181L50.265 33.815C51.19 34.7108 51.19 36.0992 50.265 36.9949C49.8025 37.4428 49.2012 37.6668 48.6462 37.6668Z" fill="#545454"/>
<path d="M55.9538 44.7876C54.6587 44.7876 53.6413 43.8023 53.6413 42.5483C53.6413 41.2942 54.6587 40.3089 55.9538 40.3089C63.585 40.3089 69.8288 34.2626 69.8288 26.8726C69.8288 19.4826 63.585 13.4363 55.9538 13.4363H51.0975C50.265 13.4363 49.525 13.0332 49.1087 12.3166C46.1488 7.38996 40.9688 4.47876 35.1875 4.47876C26.2612 4.47876 19 11.5104 19 20.1544C19 21.4085 17.9825 22.3938 16.6875 22.3938H14.375C9.2875 22.3938 5.125 26.4247 5.125 31.3514C5.125 36.278 9.2875 40.3089 14.375 40.3089C15.67 40.3089 16.6875 41.2942 16.6875 42.5483C16.6875 43.8023 15.67 44.7876 14.375 44.7876C6.74375 44.7876 0.5 38.7413 0.5 31.3514C0.5 23.9614 6.74375 17.9151 14.375 17.9151H14.5138C15.67 7.83784 24.5037 0 35.1875 0C42.0788 0 48.5537 3.40386 52.3925 8.95753H56C66.2213 8.95753 74.5 16.9745 74.5 26.8726C74.5 36.7707 66.2213 44.7876 56 44.7876H55.9538Z" fill="#545454"/>
</svg>
