<svg width="46" height="46" viewBox="0 0 46 46" fill="none" xmlns="http://www.w3.org/2000/svg">
<circle cx="23" cy="23" r="23" fill="#D9D9D9"/>
<path d="M13.0772 31.9228L25.3428 25.3428L31.9228 13.0772L19.6592 19.6592L13.0772 31.9228ZM22.5 24.4444C21.9491 24.4444 21.4876 24.2578 21.1156 23.8844C20.7435 23.5111 20.5569 23.0496 20.5556 22.5C20.5543 21.9504 20.7409 21.4889 21.1156 21.1156C21.4902 20.7422 21.9517 20.5556 22.5 20.5556C23.0483 20.5556 23.5105 20.7422 23.8864 21.1156C24.2623 21.4889 24.4483 21.9504 24.4444 22.5C24.4406 23.0496 24.2539 23.5118 23.8844 23.8864C23.515 24.261 23.0535 24.447 22.5 24.4444ZM22.5058 40C20.0856 40 17.8106 39.5411 15.6808 38.6233C13.551 37.7043 11.698 36.4572 10.1217 34.8822C8.54537 33.3072 7.29769 31.4561 6.37861 29.3289C5.45954 27.2017 5 24.9273 5 22.5058C5 20.0844 5.45954 17.8094 6.37861 15.6808C7.29639 13.551 8.54148 11.698 10.1139 10.1217C11.6863 8.54537 13.5381 7.29769 15.6692 6.37861C17.8003 5.45954 20.0753 5 22.4942 5C24.9131 5 27.1881 5.45954 29.3192 6.37861C31.449 7.29639 33.302 8.54213 34.8783 10.1158C36.4546 11.6895 37.7023 13.5413 38.6214 15.6711C39.5405 17.8009 40 20.0753 40 22.4942C40 24.9131 39.5411 27.1881 38.6233 29.3192C37.7056 31.4503 36.4585 33.3033 34.8822 34.8783C33.3059 36.4533 31.4548 37.701 29.3289 38.6214C27.203 39.5418 24.9286 40.0013 22.5058 40ZM22.5 38.0555C26.8426 38.0555 30.5208 36.5486 33.5347 33.5347C36.5486 30.5208 38.0556 26.8426 38.0556 22.5C38.0556 18.1574 36.5486 14.4792 33.5347 11.4653C30.5208 8.45139 26.8426 6.94444 22.5 6.94444C18.1574 6.94444 14.4792 8.45139 11.4653 11.4653C8.45139 14.4792 6.94444 18.1574 6.94444 22.5C6.94444 26.8426 8.45139 30.5208 11.4653 33.5347C14.4792 36.5486 18.1574 38.0555 22.5 38.0555Z" fill="#545454"/>
</svg>
