<svg width="34" height="34" viewBox="0 0 34 34" fill="none" xmlns="http://www.w3.org/2000/svg">
<path d="M30.0205 13.333C30.0205 12.8909 29.8449 12.467 29.5323 12.1545C29.2198 11.8419 28.7958 11.6663 28.3538 11.6663C27.9118 11.6663 27.4879 11.8419 27.1753 12.1545C26.8627 12.467 26.6871 12.8909 26.6871 13.333H30.0205ZM6.68715 13.333C6.68715 12.8909 6.51155 12.467 6.19899 12.1545C5.88643 11.8419 5.46251 11.6663 5.02048 11.6663C4.57845 11.6663 4.15453 11.8419 3.84197 12.1545C3.52941 12.467 3.35381 12.8909 3.35381 13.333H6.68715ZM30.5088 17.8446C30.8231 18.1482 31.2442 18.3162 31.6811 18.3124C32.1181 18.3086 32.5362 18.1334 32.8452 17.8243C33.1542 17.5153 33.3295 17.0973 33.3333 16.6603C33.3371 16.2233 33.1691 15.8023 32.8655 15.488L30.5088 17.8446ZM16.6871 1.66631L17.8655 0.487977C17.5529 0.175526 17.1291 0 16.6871 0C16.2452 0 15.8214 0.175526 15.5088 0.487977L16.6871 1.66631ZM0.508814 15.488C0.34963 15.6417 0.22266 15.8256 0.135311 16.029C0.0479631 16.2323 0.00198595 16.451 6.29278e-05 16.6723C-0.0018601 16.8936 0.0403094 17.1131 0.124111 17.3179C0.207912 17.5227 0.331668 17.7088 0.488155 17.8653C0.644643 18.0218 0.83073 18.1455 1.03556 18.2293C1.24038 18.3131 1.45985 18.3553 1.68115 18.3534C1.90245 18.3515 2.12115 18.3055 2.32449 18.2181C2.52783 18.1308 2.71174 18.0038 2.86548 17.8446L0.508814 15.488ZM8.35381 33.333H25.0205V29.9996H8.35381V33.333ZM30.0205 28.333V13.333H26.6871V28.333H30.0205ZM6.68715 28.333V13.333H3.35381V28.333H6.68715ZM32.8655 15.488L17.8655 0.487977L15.5088 2.84464L30.5088 17.8446L32.8655 15.488ZM15.5088 0.487977L0.508814 15.488L2.86548 17.8446L17.8655 2.84464L15.5088 0.487977ZM25.0205 33.333C26.3466 33.333 27.6183 32.8062 28.556 31.8685C29.4937 30.9308 30.0205 29.6591 30.0205 28.333H26.6871C26.6871 28.775 26.5115 29.1989 26.199 29.5115C25.8864 29.8241 25.4625 29.9996 25.0205 29.9996V33.333ZM8.35381 29.9996C7.91178 29.9996 7.48786 29.8241 7.1753 29.5115C6.86274 29.1989 6.68715 28.775 6.68715 28.333H3.35381C3.35381 29.6591 3.8806 30.9308 4.81828 31.8685C5.75596 32.8062 7.02773 33.333 8.35381 33.333V29.9996Z" fill="#545454"/>
</svg>
