<svg width="20" height="24" viewBox="0 0 20 24" fill="none" xmlns="http://www.w3.org/2000/svg">
<path fill-rule="evenodd" clip-rule="evenodd" d="M9.72288 22.9986L10.6036 22.0235C11.6031 20.8989 12.502 19.8319 13.3018 18.817L13.962 17.9612C16.7188 14.3116 18.0979 11.4151 18.0979 9.27417C18.0979 4.70438 14.3487 1 9.72288 1C5.0971 1 1.3479 4.70438 1.3479 9.27417C1.3479 11.4151 2.72698 14.3116 5.48374 17.9612L6.14397 18.817C7.28497 20.2535 8.47873 21.6473 9.72288 22.9986Z" stroke="#545454" stroke-width="1.90476" stroke-linecap="round" stroke-linejoin="round"/>
<path d="M9.72273 12.6572C11.65 12.6572 13.2123 11.1221 13.2123 9.22852C13.2123 7.33489 11.65 5.7998 9.72273 5.7998C7.79549 5.7998 6.23315 7.33489 6.23315 9.22852C6.23315 11.1221 7.79549 12.6572 9.72273 12.6572Z" stroke="#545454" stroke-width="1.90476" stroke-linecap="round" stroke-linejoin="round"/>
</svg>
