<svg width="35" height="36" viewBox="0 0 35 36" fill="none" xmlns="http://www.w3.org/2000/svg">
<path d="M15.6252 18.167C15.6252 18.6643 15.8228 19.1412 16.1744 19.4928C16.526 19.8444 17.0029 20.042 17.5002 20.042C17.9975 20.042 18.4744 19.8444 18.826 19.4928C19.1777 19.1412 19.3752 18.6643 19.3752 18.167C19.3752 17.6697 19.1777 17.1928 18.826 16.8412C18.4744 16.4895 17.9975 16.292 17.5002 16.292C17.0029 16.292 16.526 16.4895 16.1744 16.8412C15.8228 17.1928 15.6252 17.6697 15.6252 18.167ZM23.4377 18.167C23.4377 18.6643 23.6353 19.1412 23.9869 19.4928C24.3385 19.8444 24.8154 20.042 25.3127 20.042C25.81 20.042 26.2869 19.8444 26.6385 19.4928C26.9902 19.1412 27.1877 18.6643 27.1877 18.167C27.1877 17.6697 26.9902 17.1928 26.6385 16.8412C26.2869 16.4895 25.81 16.292 25.3127 16.292C24.8154 16.292 24.3385 16.4895 23.9869 16.8412C23.6353 17.1928 23.4377 17.6697 23.4377 18.167ZM7.81272 18.167C7.81272 18.6643 8.01027 19.1412 8.3619 19.4928C8.71353 19.8444 9.19044 20.042 9.68772 20.042C10.185 20.042 10.6619 19.8444 11.0135 19.4928C11.3652 19.1412 11.5627 18.6643 11.5627 18.167C11.5627 17.6697 11.3652 17.1928 11.0135 16.8412C10.6619 16.4895 10.185 16.292 9.68772 16.292C9.19044 16.292 8.71353 16.4895 8.3619 16.8412C8.01027 17.1928 7.81272 17.6697 7.81272 18.167ZM33.6408 11.3857C32.758 9.28809 31.4924 7.40527 29.8791 5.78809C28.2771 4.1803 26.3753 2.90228 24.2815 2.02637C22.133 1.12402 19.8518 0.666992 17.5002 0.666992H17.4221C15.0549 0.678711 12.7619 1.14746 10.6057 2.06934C8.52977 2.95423 6.64581 4.23452 5.05882 5.83887C3.46116 7.45215 2.20725 9.32715 1.34007 11.417C0.441628 13.5811 -0.0114971 15.8818 0.000221612 18.249C0.0134765 20.9618 0.655268 23.6346 1.87522 26.0576V31.9951C1.87522 32.4717 2.06453 32.9287 2.40151 33.2657C2.73849 33.6027 3.19554 33.792 3.6721 33.792H9.6135C12.0365 35.0119 14.7093 35.6537 17.4221 35.667H17.5041C19.844 35.667 22.1135 35.2139 24.2502 34.3271C26.3335 33.4617 28.2282 32.1986 29.8283 30.6084C31.4416 29.0107 32.7112 27.1436 33.5979 25.0615C34.5198 22.9053 34.9885 20.6123 35.0002 18.2451C35.0119 15.8662 34.551 13.5576 33.6408 11.3857ZM27.7385 28.4951C25.0002 31.2061 21.3674 32.6982 17.5002 32.6982H17.4338C15.0783 32.6865 12.7385 32.1006 10.6721 30.999L10.344 30.8232H4.84397V25.3232L4.66819 24.9951C3.56663 22.9287 2.98069 20.5889 2.96897 18.2334C2.95335 14.3389 4.44163 10.6826 7.1721 7.92871C9.89866 5.1748 13.5432 3.65137 17.4377 3.63574H17.5041C19.4573 3.63574 21.3518 4.01465 23.1369 4.76465C24.8791 5.49512 26.4416 6.5459 27.7854 7.88965C29.1252 9.22949 30.1799 10.7959 30.9104 12.5381C31.6682 14.3428 32.0471 16.2568 32.0393 18.2334C32.0158 22.124 30.4885 25.7686 27.7385 28.4951Z" fill="#545454"/>
</svg>
