<svg width="33" height="33" viewBox="0 0 33 33" fill="none" xmlns="http://www.w3.org/2000/svg">
<path d="M31 16.499H11.6327M4.79654 16.499H2M4.79654 16.499C4.79654 15.5354 5.15658 14.6112 5.79744 13.9298C6.43831 13.2485 7.30751 12.8657 8.21384 12.8657C9.12016 12.8657 9.98937 13.2485 10.6302 13.9298C11.2711 14.6112 11.6311 15.5354 11.6311 16.499C11.6311 17.4626 11.2711 18.3868 10.6302 19.0682C9.98937 19.7495 9.12016 20.1323 8.21384 20.1323C7.30751 20.1323 6.43831 19.7495 5.79744 19.0682C5.15658 18.3868 4.79654 17.4626 4.79654 16.499ZM31 27.5107H21.9896M21.9896 27.5107C21.9896 28.4745 21.6287 29.3997 20.9877 30.0812C20.3467 30.7628 19.4773 31.1457 18.5708 31.1457C17.6644 31.1457 16.7952 30.7612 16.1544 30.0798C15.5135 29.3984 15.1535 28.4743 15.1535 27.5107M21.9896 27.5107C21.9896 26.5468 21.6287 25.6233 20.9877 24.9418C20.3467 24.2602 19.4773 23.8773 18.5708 23.8773C17.6644 23.8773 16.7952 24.2601 16.1544 24.9415C15.5135 25.6229 15.1535 26.547 15.1535 27.5107M15.1535 27.5107H2M31 5.48734H26.1327M19.2965 5.48734H2M19.2965 5.48734C19.2965 4.52372 19.6566 3.59956 20.2974 2.91818C20.9383 2.2368 21.8075 1.854 22.7138 1.854C23.1626 1.854 23.607 1.94798 24.0216 2.13058C24.4362 2.31317 24.8129 2.5808 25.1302 2.91818C25.4476 3.25557 25.6993 3.6561 25.871 4.09692C26.0427 4.53774 26.1311 5.0102 26.1311 5.48734C26.1311 5.96447 26.0427 6.43694 25.871 6.87775C25.6993 7.31857 25.4476 7.71911 25.1302 8.05649C24.8129 8.39388 24.4362 8.66151 24.0216 8.8441C23.607 9.02669 23.1626 9.12067 22.7138 9.12067C21.8075 9.12067 20.9383 8.73787 20.2974 8.05649C19.6566 7.37511 19.2965 6.45096 19.2965 5.48734Z" stroke="#545454" stroke-width="2.5" stroke-miterlimit="10" stroke-linecap="round"/>
</svg>
