<svg width="29" height="32" viewBox="0 0 29 32" fill="none" xmlns="http://www.w3.org/2000/svg">
<path d="M24.17 31.6667C23.0144 31.6667 22.0306 31.2611 21.2183 30.45C20.4061 29.6411 20 28.6578 20 27.5C20 27.2778 20.0189 27.0483 20.0567 26.8117C20.0956 26.5739 20.1533 26.35 20.23 26.14L7.32667 18.5383C6.91889 18.9983 6.44444 19.3567 5.90333 19.6133C5.36222 19.87 4.78333 19.9989 4.16667 20C3.00889 20 2.02556 19.5956 1.21667 18.7867C0.405556 17.9767 0 16.9933 0 15.8367C0 14.68 0.405556 13.6961 1.21667 12.885C2.02778 12.0739 3.01111 11.6678 4.16667 11.6667C4.78444 11.6667 5.36333 11.7956 5.90333 12.0533C6.44333 12.3111 6.91778 12.6694 7.32667 13.1283L20.2317 5.525C20.1539 5.31611 20.0961 5.09278 20.0583 4.855C20.0194 4.61833 20 4.38889 20 4.16667C20 3.00889 20.405 2.02556 21.215 1.21667C22.0239 0.405556 23.0067 0 24.1633 0C25.32 0 26.3039 0.405 27.115 1.215C27.9261 2.025 28.3322 3.00778 28.3333 4.16333C28.3344 5.31889 27.9289 6.30278 27.1167 7.115C26.3089 7.92722 25.3256 8.33333 24.1667 8.33333C23.5489 8.33333 22.97 8.20444 22.43 7.94667C21.89 7.68889 21.4156 7.33056 21.0067 6.87167L8.10333 14.475C8.18 14.6839 8.23722 14.9061 8.275 15.1417C8.31389 15.3783 8.33333 15.6067 8.33333 15.8267C8.33333 16.0467 8.31389 16.2772 8.275 16.5183C8.23611 16.7594 8.17833 16.9844 8.10167 17.1933L21.0067 24.795C21.4144 24.3361 21.8889 23.9778 22.43 23.72C22.9711 23.4622 23.55 23.3333 24.1667 23.3333C25.3244 23.3333 26.3078 23.7383 27.1167 24.5483C27.9278 25.3572 28.3333 26.34 28.3333 27.4967C28.3333 28.6533 27.9289 29.6372 27.12 30.4483C26.3111 31.2594 25.3278 31.6656 24.17 31.6667ZM24.1667 6.66667C24.8522 6.66667 25.4406 6.42167 25.9317 5.93167C26.4217 5.44056 26.6667 4.85222 26.6667 4.16667C26.6667 3.48111 26.4217 2.89278 25.9317 2.40167C25.4406 1.91167 24.8522 1.66667 24.1667 1.66667C23.4811 1.66667 22.8928 1.91167 22.4017 2.40167C21.9117 2.89278 21.6667 3.48111 21.6667 4.16667C21.6667 4.85222 21.9117 5.44056 22.4017 5.93167C22.8928 6.42167 23.4811 6.66667 24.1667 6.66667ZM4.16667 18.3333C4.85222 18.3333 5.44056 18.0883 5.93167 17.5983C6.42167 17.1072 6.66667 16.5189 6.66667 15.8333C6.66667 15.1478 6.42167 14.5594 5.93167 14.0683C5.44167 13.5772 4.85333 13.3322 4.16667 13.3333C3.48 13.3344 2.89167 13.5794 2.40167 14.0683C1.91167 14.5594 1.66667 15.1478 1.66667 15.8333C1.66667 16.5189 1.91167 17.1072 2.40167 17.5983C2.89167 18.0894 3.48 18.3344 4.16667 18.3333ZM24.1667 30C24.8522 30 25.4406 29.755 25.9317 29.265C26.4217 28.7739 26.6667 28.1856 26.6667 27.5C26.6667 26.8144 26.4217 26.2261 25.9317 25.735C25.4406 25.245 24.8522 25 24.1667 25C23.4811 25 22.8928 25.245 22.4017 25.735C21.9117 26.2261 21.6667 26.8144 21.6667 27.5C21.6667 28.1856 21.9117 28.7739 22.4017 29.265C22.8928 29.755 23.4811 30 24.1667 30Z" fill="#545454"/>
</svg>
