<svg width="52" height="52" viewBox="0 0 52 52" fill="none" xmlns="http://www.w3.org/2000/svg">
<circle cx="26" cy="26" r="26" fill="#D9D9D9"/>
<path d="M25.4286 44C24.6286 44 24 43.3714 24 42.5714V25.4286C24 24.6286 24.6286 24 25.4286 24C26.2286 24 26.8571 24.6286 26.8571 25.4286V42.5714C26.8571 43.3714 26.2286 44 25.4286 44Z" fill="#545454"/>
<path d="M32.7429 31.0286C32.5555 31.0309 32.3697 30.9939 32.1975 30.9201C32.0253 30.8463 31.8704 30.7373 31.7429 30.6L25.6 24.4571L19.4571 30.6C18.8857 31.1714 18 31.1714 17.4286 30.6C16.8571 30.0286 16.8571 29.1429 17.4286 28.5714L24.5714 21.4286C25.1429 20.8571 26.0286 20.8571 26.6 21.4286L33.7429 28.5714C34.3143 29.1429 34.3143 30.0286 33.7429 30.6C33.4571 30.8857 33.0857 31.0286 32.7429 31.0286Z" fill="#545454"/>
<path d="M37.2571 35.5714C36.4571 35.5714 35.8286 34.9429 35.8286 34.1429C35.8286 33.3429 36.4571 32.7143 37.2571 32.7143C41.9714 32.7143 45.8286 28.8571 45.8286 24.1429C45.8286 19.4286 41.9714 15.5714 37.2571 15.5714H34.2571C33.7429 15.5714 33.2857 15.3143 33.0286 14.8571C31.2 11.7143 28 9.85714 24.4286 9.85714C18.9143 9.85714 14.4286 14.3429 14.4286 19.8571C14.4286 20.6571 13.8 21.2857 13 21.2857H11.5714C8.42857 21.2857 5.85714 23.8571 5.85714 27C5.85714 30.1429 8.42857 32.7143 11.5714 32.7143C12.3714 32.7143 13 33.3429 13 34.1429C13 34.9429 12.3714 35.5714 11.5714 35.5714C6.85714 35.5714 3 31.7143 3 27C3 22.2857 6.85714 18.4286 11.5714 18.4286H11.6571C12.3714 12 17.8286 7 24.4286 7C28.6857 7 32.6857 9.17143 35.0571 12.7143H37.2857C43.6 12.7143 48.7143 17.8286 48.7143 24.1429C48.7143 30.4571 43.6 35.5714 37.2857 35.5714H37.2571Z" fill="#545454"/>
</svg>
