<svg width="37" height="37" viewBox="0 0 37 37" fill="none" xmlns="http://www.w3.org/2000/svg">
<path d="M18.6667 1.66699C9.46167 1.66699 2 9.12866 2 18.3337C2 27.5387 9.46167 35.0003 18.6667 35.0003C27.8717 35.0003 35.3333 27.5387 35.3333 18.3337C35.3333 9.12866 27.8717 1.66699 18.6667 1.66699Z" stroke="#545454" stroke-width="2.5" stroke-linecap="round" stroke-linejoin="round"/>
<path d="M5.78503 28.9107C5.78503 28.9107 9.50003 24.1673 18.6667 24.1673C27.8334 24.1673 31.55 28.9107 31.55 28.9107M18.6667 18.334C19.9928 18.334 21.2646 17.8072 22.2022 16.8695C23.1399 15.9318 23.6667 14.6601 23.6667 13.334C23.6667 12.0079 23.1399 10.7361 22.2022 9.79845C21.2646 8.86077 19.9928 8.33398 18.6667 8.33398C17.3406 8.33398 16.0688 8.86077 15.1312 9.79845C14.1935 10.7361 13.6667 12.0079 13.6667 13.334C13.6667 14.6601 14.1935 15.9318 15.1312 16.8695C16.0688 17.8072 17.3406 18.334 18.6667 18.334Z" stroke="#545454" stroke-width="2.5" stroke-linecap="round" stroke-linejoin="round"/>
</svg>
